<?xml version="1.0" encoding="utf-8"?>
<!-- Generator: Adobe Illustrator 24.0.1, SVG Export Plug-In . SVG Version: 6.00 Build 0)  -->
<svg version="1.1" id="Layer_1" xmlns="http://www.w3.org/2000/svg" xmlns:xlink="http://www.w3.org/1999/xlink" x="0px" y="0px"
	 viewBox="0 0 169.7 48.1" style="enable-background:new 0 0 169.7 48.1;" xml:space="preserve">
<style type="text/css">
	.st0{fill:#282827;}
	.st1{fill:#EC1C24;}
	.st2{fill:#231F20;}
</style>
<g>
	<path class="st0" d="M24.1,16.9c0.7-1.7,1.7-3.3,3-4.6c1.3-1.3,2.8-2.4,4.5-3.1C33.3,8.4,35.1,8,37.2,8c2,0,3.9,0.4,5.6,1.1
		c1.7,0.8,3.2,1.8,4.5,3.1c1.3,1.3,2.3,2.9,3,4.6c0.7,1.7,1.1,3.6,1.1,5.6s-0.4,3.8-1.1,5.6s-1.7,3.3-3,4.6C46,34,44.5,35,42.8,35.8
		c-1.7,0.8-3.6,1.1-5.6,1.1c-2,0-3.9-0.4-5.6-1.1C29.8,35,28.3,34,27,32.7c-1.3-1.3-2.3-2.8-3-4.6S23,24.5,23,22.5
		S23.4,18.7,24.1,16.9z M27.5,26.7c0.5,1.3,1.2,2.5,2.2,3.5c0.9,1,2,1.8,3.3,2.4c1.3,0.6,2.7,0.9,4.2,0.9s2.9-0.3,4.2-0.9
		c1.3-0.6,2.4-1.4,3.3-2.4c0.9-1,1.7-2.2,2.2-3.5c0.5-1.3,0.8-2.7,0.8-4.2c0-1.5-0.3-2.8-0.8-4.2c-0.5-1.3-1.2-2.5-2.2-3.5
		c-0.9-1-2-1.8-3.3-2.4c-1.3-0.6-2.7-0.9-4.2-0.9s-2.9,0.3-4.2,0.9c-1.3,0.6-2.4,1.4-3.3,2.4c-0.9,1-1.7,2.2-2.2,3.5
		c-0.5,1.3-0.8,2.7-0.8,4.2C26.7,24,27,25.3,27.5,26.7z"/>
	<path class="st0" d="M58.6,8.4v24.7h14.1v3.4H55V8.4H58.6z"/>
	<path class="st0" d="M104.2,23.4c0.5-1.2,1.1-2.2,2-3.1c0.8-0.9,1.8-1.6,3-2.1c1.1-0.5,2.4-0.7,3.7-0.7c1.1,0,2.3,0.3,3.6,0.8
		c1.2,0.5,2.3,1.3,3.1,2.3l1.3-2.8h1.5v18.8h-3l-0.2-2.8c-0.7,1-1.7,1.8-2.9,2.4s-2.4,0.8-3.6,0.8c-1.3,0-2.5-0.2-3.6-0.7
		c-1.1-0.5-2.1-1.2-2.9-2.1c-0.8-0.9-1.5-1.9-2-3.1s-0.7-2.4-0.7-3.8C103.5,25.8,103.7,24.6,104.2,23.4z M107.4,29.8
		c0.3,0.8,0.7,1.5,1.2,2c0.5,0.6,1.2,1,1.9,1.4c0.7,0.3,1.5,0.5,2.4,0.5c0.9,0,1.7-0.2,2.4-0.5c0.7-0.3,1.4-0.8,1.9-1.4
		c0.5-0.6,0.9-1.3,1.2-2.1c0.3-0.8,0.4-1.7,0.4-2.7c0-0.8-0.1-1.6-0.4-2.4c-0.3-0.8-0.7-1.4-1.2-2c-0.5-0.6-1.2-1-1.9-1.4
		s-1.5-0.5-2.4-0.5c-0.9,0-1.7,0.2-2.4,0.5c-0.7,0.3-1.4,0.8-1.9,1.4c-0.5,0.6-1,1.3-1.2,2c-0.3,0.8-0.4,1.6-0.4,2.5
		C107,28.1,107.1,29,107.4,29.8z"/>
	<path class="st0" d="M125.8,46.1c-0.3,0-0.6,0-0.9,0c-0.3,0-0.6-0.1-0.9-0.1l0.2-2.9h1.6c1.7,0,2.9-0.8,3.5-2.3l1.8-4.2l-7.5-18.6
		h3.7l5.6,14.4l5.6-14.4h3.7l-9.5,23.4C131.4,44.5,129.1,46.1,125.8,46.1z"/>
	<g>
		<g>
			<path class="st1" d="M14.9,11.4C12.5,13.8,10.2,15,8,15c-1.5,0-2.9-0.6-4.2-1.7s-2-2.4-2-3.9s0.7-3,2.2-4.8
				c0.9-0.6,2-1.3,3.2-2.2C7.8,2,8.6,1.7,9.3,1.7c0.7,0,1.4,0.2,2.2,0.7v1.9C10.2,5.5,9.3,6.4,9,6.8c-0.2,0.3-0.3,0.6-0.3,1
				c0,0.3,0.1,0.6,0.2,1c1.1,0.1,2.7,0.3,4.9,0.4C14.7,10.3,15.1,11.1,14.9,11.4z M19.6,40.3c-1.4,1.9-2.4,2.8-2.9,2.9
				c-0.5,0-1.5,0-2.9-0.2c-1.7-2.5-2.7-6.2-2.9-11.2c0-2.7-0.1-6.7-0.3-12c0.8,0,1.3-0.1,1.7-0.2c1,2.2,2.5,5.6,4.5,10.2
				C18.6,34.2,19.6,37.6,19.6,40.3z"/>
		</g>
	</g>
	<g>
		<path class="st2" d="M145.5,17.8v0.3h-0.8v2.2h-0.3v-2.2h-0.8v-0.3H145.5z"/>
		<path class="st2" d="M148,20.3v-1.9l-1,1.5H147l-1-1.5v1.9h-0.3v-2.5h0.3l1,1.6l1-1.6h0.3v2.5H148z"/>
	</g>
	<path class="st0" d="M103.2,13.7c-0.4-1.1-1.1-2-2-2.8c-0.9-0.8-1.9-1.4-3.2-1.8c-1.2-0.4-2.7-0.7-4.3-0.7h-9.3v28.1h3.6V26.2h0
		v-3.4h0v-11h5.7c1.1,0,2,0.1,2.8,0.4c0.8,0.3,1.5,0.7,2,1.2c0.5,0.5,0.9,1.1,1.2,1.7c0.3,0.7,0.4,1.4,0.4,2.2c0,1.6-0.5,3-1.6,4
		c-1.1,1-2.7,1.5-4.7,1.5h-3v3.4h3c1.6,0,3-0.2,4.3-0.7c1.2-0.4,2.3-1.1,3.2-1.8c0.9-0.8,1.5-1.7,2-2.8s0.7-2.3,0.7-3.6
		C103.9,16,103.7,14.8,103.2,13.7z"/>
</g>
</svg>
